<svg xmlns="http://www.w3.org/2000/svg" viewBox="0 0 1920 1080">
  <defs>
    <linearGradient id="tealGrad" x1="0%" y1="0%" x2="100%" y2="100%">
      <stop offset="0%" stop-color="#3FB8CC"/>
      <stop offset="100%" stop-color="#016678"/>
    </linearGradient>
  </defs>
  <g>
    <path d="M 827.0,493.0 L 826.0,572.0 L 940.0,572.0 L 941.0,575.0 L 826.0,713.0 L 826.0,776.0 L 1055.0,777.0 L 1055.0,701.0 L 944.0,701.0 L 943.0,698.0 L 1056.0,563.0 L 1056.0,494.0 Z M 664.0,484.0 L 642.0,487.0 L 607.0,499.0 L 582.0,514.0 L 561.0,533.0 L 545.0,555.0 L 531.0,585.0 L 525.0,611.0 L 524.0,646.0 L 530.0,676.0 L 540.0,701.0 L 556.0,726.0 L 577.0,748.0 L 592.0,759.0 L 615.0,771.0 L 641.0,779.0 L 679.0,782.0 L 707.0,778.0 L 744.0,763.0 L 765.0,748.0 L 785.0,728.0 L 799.0,708.0 L 814.0,672.0 L 819.0,641.0 L 819.0,621.0 L 816.0,598.0 L 808.0,571.0 L 791.0,540.0 L 769.0,516.0 L 749.0,502.0 L 724.0,491.0 L 699.0,485.0 Z M 670.0,566.0 L 676.0,566.0 L 677.0,567.0 L 687.0,568.0 L 696.0,571.0 L 709.0,579.0 L 719.0,590.0 L 722.0,596.0 L 724.0,598.0 L 724.0,600.0 L 727.0,605.0 L 729.0,611.0 L 730.0,622.0 L 731.0,623.0 L 731.0,641.0 L 730.0,642.0 L 730.0,648.0 L 729.0,649.0 L 728.0,657.0 L 721.0,673.0 L 714.0,683.0 L 704.0,692.0 L 690.0,699.0 L 683.0,700.0 L 682.0,701.0 L 664.0,701.0 L 663.0,700.0 L 657.0,700.0 L 651.0,697.0 L 649.0,697.0 L 635.0,689.0 L 625.0,679.0 L 621.0,671.0 L 619.0,669.0 L 615.0,658.0 L 615.0,654.0 L 613.0,648.0 L 613.0,624.0 L 614.0,623.0 L 615.0,613.0 L 616.0,612.0 L 617.0,606.0 L 626.0,589.0 L 637.0,578.0 L 643.0,574.0 L 655.0,569.0 L 658.0,569.0 L 663.0,567.0 L 669.0,567.0 Z M 1203.0,462.0 L 1191.0,474.0 L 1191.0,475.0 L 1187.0,478.0 L 1187.0,479.0 L 1176.0,490.0 L 1176.0,491.0 L 1170.0,496.0 L 1170.0,497.0 L 1157.0,510.0 L 1156.0,512.0 L 1156.0,558.0 L 1157.0,559.0 L 1202.0,511.0 L 1204.0,511.0 L 1210.0,517.0 L 1210.0,518.0 L 1238.0,547.0 L 1238.0,548.0 L 1248.0,558.0 L 1248.0,559.0 L 1250.0,558.0 L 1250.0,537.0 L 1249.0,536.0 L 1249.0,532.0 L 1250.0,531.0 L 1250.0,512.0 L 1242.0,504.0 L 1242.0,503.0 L 1236.0,498.0 L 1236.0,497.0 L 1222.0,483.0 L 1222.0,482.0 Z M 175.0,413.0 L 322.0,776.0 L 429.0,777.0 L 571.0,413.0 L 470.0,414.0 L 380.0,659.0 L 288.0,414.0 Z M 1202.0,379.0 L 1201.0,381.0 L 1187.0,395.0 L 1187.0,396.0 L 1156.0,428.0 L 1156.0,485.0 L 1157.0,485.0 L 1166.0,476.0 L 1166.0,475.0 L 1202.0,437.0 L 1204.0,437.0 L 1233.0,468.0 L 1233.0,469.0 L 1246.0,482.0 L 1246.0,483.0 L 1248.0,485.0 L 1250.0,485.0 L 1250.0,429.0 L 1249.0,427.0 L 1243.0,422.0 L 1243.0,421.0 L 1213.0,390.0 L 1213.0,389.0 L 1204.0,380.0 L 1204.0,379.0 Z " fill="url(#tealGrad)" fill-rule="evenodd"/>
    <path d="M 1729.0,413.0 L 1697.0,405.0 L 1492.0,405.0 L 1493.0,809.0 L 1596.0,809.0 L 1598.0,691.0 L 1685.0,691.0 L 1726.0,683.0 L 1746.0,674.0 L 1770.0,657.0 L 1799.0,622.0 L 1812.0,592.0 L 1818.0,560.0 L 1818.0,532.0 L 1810.0,496.0 L 1796.0,468.0 L 1782.0,450.0 L 1760.0,430.0 Z M 1596.0,502.0 L 1598.0,500.0 L 1673.0,500.0 L 1674.0,501.0 L 1678.0,501.0 L 1679.0,502.0 L 1682.0,502.0 L 1685.0,504.0 L 1687.0,504.0 L 1697.0,510.0 L 1707.0,521.0 L 1712.0,531.0 L 1712.0,533.0 L 1714.0,537.0 L 1714.0,542.0 L 1715.0,543.0 L 1715.0,559.0 L 1714.0,560.0 L 1714.0,564.0 L 1713.0,565.0 L 1712.0,571.0 L 1707.0,581.0 L 1704.0,585.0 L 1693.0,595.0 L 1685.0,599.0 L 1683.0,599.0 L 1679.0,601.0 L 1675.0,601.0 L 1674.0,602.0 L 1598.0,602.0 L 1596.0,600.0 Z M 1456.0,405.0 L 1366.0,405.0 L 1366.0,690.0 L 1358.0,711.0 L 1339.0,729.0 L 1322.0,735.0 L 1292.0,735.0 L 1274.0,728.0 L 1258.0,713.0 L 1249.0,690.0 L 1249.0,589.0 L 1204.0,539.0 L 1159.0,585.0 L 1157.0,690.0 L 1162.0,719.0 L 1174.0,747.0 L 1188.0,767.0 L 1227.0,799.0 L 1251.0,809.0 L 1277.0,814.0 L 1355.0,812.0 L 1400.0,793.0 L 1423.0,773.0 L 1438.0,753.0 L 1452.0,720.0 L 1456.0,697.0 Z M 1202.0,283.0 L 1202.0,284.0 L 1187.0,300.0 L 1187.0,301.0 L 1174.0,314.0 L 1174.0,315.0 L 1158.0,332.0 L 1158.0,334.0 L 1157.0,335.0 L 1157.0,394.0 L 1158.0,395.0 L 1158.0,397.0 L 1159.0,397.0 L 1170.0,386.0 L 1170.0,385.0 L 1173.0,383.0 L 1173.0,382.0 L 1184.0,371.0 L 1184.0,370.0 L 1192.0,362.0 L 1192.0,361.0 L 1202.0,351.0 L 1204.0,351.0 L 1210.0,356.0 L 1210.0,357.0 L 1218.0,365.0 L 1218.0,366.0 L 1248.0,398.0 L 1248.0,394.0 L 1249.0,393.0 L 1249.0,335.0 L 1248.0,334.0 L 1248.0,332.0 L 1239.0,323.0 L 1239.0,322.0 L 1230.0,313.0 L 1230.0,312.0 L 1227.0,310.0 L 1227.0,309.0 L 1222.0,304.0 L 1222.0,303.0 L 1219.0,301.0 L 1219.0,300.0 L 1207.0,287.0 L 1207.0,286.0 L 1204.0,283.0 Z " fill="#FFFFFF" fill-rule="evenodd"/>
  </g>
</svg>